<?xml version="1.0" encoding="UTF-8"?>
<svg id="_图层_2" data-name="图层 2" xmlns="http://www.w3.org/2000/svg" viewBox="0 0 258 258">
  <defs>
    <style>
      .cls-1 {
        fill: none;
        stroke: #fff;
        stroke-linecap: round;
        stroke-linejoin: round;
        stroke-width: 8px;
      }
    </style>
  </defs>
  <g id="_图层_4" data-name="图层 4">
    <g>
      <rect class="cls-1" x="4" y="4" width="250" height="250" rx="40.48" ry="40.48"/>
      <path class="cls-1" d="M182.39,75.61c29.48,29.48,29.48,77.29,0,106.77-29.48,29.48-77.29,29.48-106.77,0s-29.48-77.29,0-106.77"/>
      <path class="cls-1" d="M162.46,83.47c-19.83-14.59-47.09-14.59-66.92,0-4,2.94-9.55,2.52-13.07-.99l-12.76-12.76c-4.25-4.25-3.87-11.28,.85-15,34.15-26.9,82.71-26.9,116.86,0,4.72,3.72,5.1,10.75,.85,15l-12.76,12.76c-3.51,3.51-9.06,3.93-13.07,.99Z"/>
    </g>
  </g>
</svg>